HIERARCHY
ROOT Hips
{
  OFFSET 13.6774 106.653 -34.4427
  CHANNELS 6 Xposition Yposition Zposition Zrotation Xrotation Yrotation
  JOINT ToSpine
  {
    OFFSET -2.69724 7.43032 -0.144315
    CHANNELS 3 Zrotation Xrotation Yrotation
    JOINT Spine
    {
      OFFSET -0.0310711 10.7595 1.96963
      CHANNELS 3 Zrotation Xrotation Yrotation
      JOINT Spine1
      {
        OFFSET 19.9056 3.91189 0.764692
        CHANNELS 3 Zrotation Xrotation Yrotation
        JOINT Neck
        {
          OFFSET 25.9749 7.03908 -0.130764
          CHANNELS 3 Zrotation Xrotation Yrotation
          JOINT Head
          {
            OFFSET 9.52751 0.295786 -0.907742
            CHANNELS 3 Zrotation Xrotation Yrotation
            End Site
            {
              OFFSET 16.4037 0.713936 2.7358
            }
          }
        }
        JOINT LeftShoulder
        {
          OFFSET 17.7449 4.33886 11.7777
          CHANNELS 3 Zrotation Xrotation Yrotation
          JOINT LeftArm
          {
            OFFSET 0.911315 1.27913 9.80584
            CHANNELS 3 Zrotation Xrotation Yrotation
            JOINT LeftForeArm
            {
              OFFSET 28.6126 1.18197 -3.53199
              CHANNELS 3 Zrotation Xrotation Yrotation
              JOINT LeftHand
              {
                OFFSET 27.5088 0.0218783 0.327423
                CHANNELS 3 Zrotation Xrotation Yrotation
                End Site
                {
                  OFFSET 18.6038 -0.000155887 0.382096
                }
              }
            }
          }
        }
        JOINT RightShoulder
        {
          OFFSET 17.1009 2.89543 -12.2328
          CHANNELS 3 Zrotation Xrotation Yrotation
          JOINT RightArm
          {
            OFFSET 1.4228 0.178766 -10.211
            CHANNELS 3 Zrotation Xrotation Yrotation
            JOINT RightForeArm
            {
              OFFSET 28.733 1.87905 2.64907
              CHANNELS 3 Zrotation Xrotation Yrotation
              JOINT RightHand
              {
                OFFSET 27.4588 0.290562 -0.101845
                CHANNELS 3 Zrotation Xrotation Yrotation
                End Site
                {
                  OFFSET 17.8396 -0.255518 -0.000602873
                }
              }
            }
          }
        }
      }
    }
  }
  JOINT LeftUpLeg
  {
    OFFSET -5.61296 -2.22332 -10.2353
    CHANNELS 3 Zrotation Xrotation Yrotation
    JOINT LeftLeg
    {
      OFFSET 2.56703 -44.7417 -7.93097
      CHANNELS 3 Zrotation Xrotation Yrotation
      JOINT LeftFoot
      {
        OFFSET 3.16933 -46.5642 -3.96578
        CHANNELS 3 Zrotation Xrotation Yrotation
        JOINT LeftToeBase
        {
          OFFSET 0.346054 -6.02161 12.8035
          CHANNELS 3 Zrotation Xrotation Yrotation
          End Site
          {
            OFFSET 0.134235 -1.35082 5.13018
          }
        }
      }
    }
  }
  JOINT RightUpLeg
  {
    OFFSET -5.7928 -1.72406 10.6446
    CHANNELS 3 Zrotation Xrotation Yrotation
    JOINT RightLeg
    {
      OFFSET -2.57161 -44.7178 -7.85259
      CHANNELS 3 Zrotation Xrotation Yrotation
      JOINT RightFoot
      {
        OFFSET -3.10148 -46.5936 -4.03391
        CHANNELS 3 Zrotation Xrotation Yrotation
        JOINT RightToeBase
        {
          OFFSET -0.0828122 -6.13587 12.8035
          CHANNELS 3 Zrotation Xrotation Yrotation
          End Site
          {
            OFFSET -0.131328 -1.35082 5.13018
          }
        }
      }
    }
  }
}
MOTION
Frames: 14
Frame Time: 0.03333333333333333
0.0000 93.1000 0.0000 63.9037 -2.3012 -14.4144 -70.9033 0.5062 88.0458 118.8319 64.4658 -25.1974 -12.7964 16.8528 1.9805 -148.0692 33.1325 157.6532 -131.6367 71.2117 167.4869 -2.5895 -24.8105 -34.1614 -67.0415 20.2235 -140.1146 26.9488 -2.3033 -92.4449 0.4732 0.4503 -0.5711 0.8040 4.6626 7.0230 -134.2410 -0.1841 102.2190 -2.5224 0.4715 60.0612 0.8481 -0.9868 0.6880 -52.8720 7.3590 104.1902 -2.2739 31.4539 -3.2301 -9.0340 -8.1853 -1.7475 6.1151 -15.1595 8.3099 -14.7593 -3.4034 115.9222 0.4163 50.2648 -8.8139 4.4423 -2.4527 1.3998 2.0301 -0.1190 -9.2522 
0.0000 93.1000 0.0000 64.0558 5.0221 -9.4309 -70.8261 0.9467 88.0303 113.9559 64.2806 -21.5099 -11.0670 17.5777 -0.1162 -143.2568 35.2030 153.3114 -131.3653 75.1715 168.1219 -2.1370 -23.4720 -31.4144 -64.9909 18.4615 -144.0484 26.2849 -2.8212 -94.2996 0.6821 0.4387 -0.4675 1.0429 5.4539 8.8937 -139.0966 0.9114 103.1955 -3.0615 -0.3497 63.8908 1.1020 -0.9621 0.8658 -49.5321 11.4607 102.4535 -2.6781 30.4615 -8.4338 -7.5838 -3.0008 -1.8153 5.7426 -14.9392 4.5216 -16.7994 -5.1545 114.2481 0.6536 47.4287 -5.8205 3.4024 -0.8228 1.8461 3.4523 -5.9918 -11.7000 
0.0000 93.1000 0.0000 64.0122 10.2842 -5.7646 -70.8294 -2.0167 87.9568 111.9493 65.0620 -19.6895 -9.6397 17.7840 -3.1331 -140.2989 38.0446 153.1340 -139.8378 78.9226 174.0890 -3.7986 -23.7746 -30.6142 -63.9934 16.1290 -146.1878 25.2276 -2.8329 -95.1206 -0.2417 0.7298 0.9017 -1.2944 6.6382 11.6664 -141.0542 1.9446 102.8169 -0.3742 -0.8316 67.0132 -0.5001 -1.3028 -0.4968 -48.9127 11.5760 98.9998 -1.9958 24.9683 -7.3556 -6.7543 -2.4487 0.0941 5.2089 -14.9951 6.4979 -21.6228 -7.0806 112.2575 1.9192 43.8834 -0.4464 4.6824 -1.1223 -1.7563 1.2261 -11.5502 -21.1041 
0.0000 93.1000 0.0000 65.0821 12.6635 -1.8416 -70.9377 -0.3559 87.7286 111.9551 66.5737 -21.0582 -9.5525 18.5734 -1.2802 -135.1321 40.0998 152.6763 -161.7605 82.5060 -164.1635 -2.7673 -22.8790 -28.6234 -64.1083 15.8113 -149.1821 23.9001 -3.1845 -95.4634 -0.5353 0.8501 -0.5985 0.1329 6.1580 14.0242 -141.9501 2.2718 102.4099 3.1690 -1.8486 69.1167 1.3337 -1.3990 0.5744 -50.3838 12.2143 98.0814 -0.5867 24.1799 -3.8483 -6.7192 -2.0647 -1.5606 4.8527 -12.4404 2.9110 -25.3037 -8.9690 106.7018 0.5549 41.1574 0.1897 7.7430 -6.3309 0.4392 2.4233 -4.0715 -13.9908 
0.0000 93.1000 0.0000 66.0755 15.2092 0.0560 -71.0451 1.8242 88.1947 111.0682 67.0858 -23.0967 -8.0473 18.4956 0.0884 -131.9182 40.9879 150.9566 -174.8398 83.8400 -152.1385 -0.1489 -22.0360 -28.0092 -64.4489 16.5817 -152.2537 23.1373 -1.5982 -94.4789 -0.1480 -1.8414 -0.8221 -0.4653 6.5348 16.8122 -143.7506 2.3158 100.0766 2.9720 -2.1069 71.9752 0.1190 1.8227 -0.5013 -49.8577 13.6819 98.0143 -0.5437 22.4587 -7.0324 -7.3541 -2.4545 0.4089 5.6294 -12.3030 2.8031 -27.6843 -10.6616 102.0001 1.3348 39.2880 2.4980 8.6783 -8.5521 0.0864 1.8185 -3.6531 -15.6342 
0.0000 93.1000 0.0000 66.8319 17.0217 2.1170 -71.3122 0.1291 88.3813 107.0802 68.1764 -22.5885 -8.3940 18.3649 2.6336 -132.3102 41.3949 151.4511 174.0652 84.2741 -142.5074 -1.8614 -21.7592 -28.5297 -64.8145 16.1637 -154.4111 21.7437 -2.5832 -93.3490 0.0358 0.5654 0.2871 -0.3531 5.3658 21.2097 -146.3106 4.7367 98.9024 3.9925 -1.7599 73.7702 0.6857 -1.0390 0.1912 -49.5806 15.0429 97.0107 -0.0728 23.3473 -8.7641 -7.5714 -2.4588 -1.0651 4.1174 -10.0518 0.2011 -30.1584 -12.3654 95.4829 1.6416 38.3601 5.4362 6.5519 -9.0697 0.5885 2.8175 -4.5388 -19.7554 
0.0000 93.1000 0.0000 67.1954 18.6655 4.3762 -71.0268 -0.2042 88.2660 105.0752 68.5243 -18.8643 -7.1170 17.8396 3.3043 -131.4053 42.1105 154.0978 155.3047 83.5628 -125.2256 -1.8900 -20.7068 -27.2420 -66.2273 17.2034 -155.4249 19.8752 -2.0420 -93.3459 -0.0167 0.7237 0.2943 -0.6073 4.9252 23.8284 -146.0603 5.0552 98.3840 3.5065 -2.2091 75.1153 0.9050 -1.2360 0.2974 -48.3557 15.7825 94.5226 -0.1926 25.9952 -9.2391 -6.9938 -4.2669 -1.3008 2.9061 -8.8311 0.2830 -31.9178 -14.9312 89.3498 1.3240 38.1733 8.8512 4.7851 -8.0257 0.5822 2.9614 -3.8696 -19.7140 
0.0000 93.1000 0.0000 67.7590 19.0379 5.3204 -70.9797 0.0211 88.4489 101.3055 69.4372 -17.2489 -5.5132 17.9120 4.2597 -131.2621 42.1290 156.9283 148.0509 83.3010 -118.1028 -1.4171 -20.7168 -27.9301 -67.1212 17.7165 -154.3838 18.9136 -1.7301 -94.0468 -0.3913 0.1249 0.2262 -0.9731 5.3739 25.0325 -146.1966 3.9965 98.0242 4.4315 -1.6678 74.2500 0.0992 -0.5108 0.0308 -47.7037 16.9398 92.1816 -1.1463 27.9111 -8.9758 -6.7506 -6.4528 -1.0213 2.0202 -8.0354 0.3382 -32.7729 -16.0740 85.2670 1.7107 37.9928 10.1808 4.8963 -7.9874 0.2064 2.7198 -2.3077 -20.3349 
0.0000 93.1000 0.0000 69.2526 18.3240 4.0266 -71.0080 -0.0065 88.4604 99.7846 70.4975 -16.6189 -4.8467 18.4404 4.7177 -129.2487 41.5582 155.0668 152.1162 83.1190 -122.4722 -1.3124 -20.1380 -27.7135 -67.0744 18.5529 -154.2452 17.9729 -1.8269 -94.3130 -0.2927 0.1724 0.0488 -1.0151 5.5395 26.0058 -144.7337 4.1792 98.2247 5.7419 -1.7517 72.8051 -0.0549 -0.5469 -0.0591 -48.0116 17.3746 92.0293 -2.2164 30.1181 -8.8513 -6.1169 -8.0210 -1.2431 0.7721 -5.2605 1.5572 -32.8446 -16.9448 83.4878 1.7748 38.0999 10.1720 3.8052 -7.5276 0.2687 2.7184 -0.6743 -20.0799 
0.0000 93.1000 0.0000 69.9630 16.8077 4.0567 -71.1548 -0.2022 88.2664 99.9632 71.1163 -16.6567 -4.0301 19.3812 3.7517 -128.5287 41.1301 153.9511 155.4488 82.9053 -126.5519 -1.3100 -20.0974 -27.4222 -68.2202 18.6743 -154.4154 18.9970 -1.7102 -94.3592 -0.2324 -0.1296 0.0434 -1.5480 5.7078 27.8361 -144.1657 3.9811 98.7815 5.7956 -3.3481 71.8138 -0.5275 -0.2360 -0.4781 -46.9872 18.2806 92.1036 -2.8875 33.2384 -7.0460 -5.9369 -10.5924 -0.9441 -0.3556 -1.2556 0.6548 -33.7649 -17.0675 82.7920 2.2091 38.4148 8.9016 2.7573 -6.1983 -0.0277 2.0952 0.9100 -16.2516 
0.0000 93.1000 0.0000 70.6390 16.0673 5.0748 -71.1214 -0.5355 88.1852 101.1889 71.2973 -17.2795 -4.1416 19.7153 2.8022 -129.4277 41.3515 155.5956 150.5513 82.6585 -122.7449 -1.6377 -19.7654 -26.7393 -68.1186 19.5090 -153.4436 18.6179 -1.9333 -93.9117 0.0468 0.3133 0.2413 -1.4752 5.8034 28.1497 -143.8729 4.0672 99.1360 7.0217 -3.4863 70.9718 0.1775 -0.7654 -0.1018 -46.2828 18.9282 92.2413 -3.1618 36.7442 -7.6484 -6.1100 -12.2546 -1.4711 -0.5217 -1.0668 0.0531 -33.8352 -17.3004 83.1405 2.4848 38.0986 9.8855 3.3023 -5.1891 -0.1649 2.1081 -0.4553 -14.2794 
0.0000 93.1000 0.0000 71.0977 15.9463 5.1190 -71.0573 0.0830 88.1431 101.6005 71.2885 -17.1258 -3.6639 19.8494 2.6883 -129.1763 41.6587 157.0822 145.0050 82.2711 -116.1512 -1.0372 -20.1212 -27.1958 -68.2924 19.5164 -153.3368 19.3991 -1.6750 -93.8515 0.1248 -0.3894 0.0975 -1.4845 6.3631 27.7471 -144.4083 3.2981 99.1869 6.8688 -3.0265 69.9779 0.2712 0.0426 -0.2939 -45.2690 19.6802 93.1847 -2.6723 39.9146 -10.6140 -6.0479 -12.4962 -1.2263 0.1186 -3.7128 3.0338 -33.7650 -17.7323 83.1306 2.1818 37.6836 9.0653 4.3649 -4.7916 -0.2865 0.9962 0.4912 -11.2790 
0.0000 93.1000 0.0000 70.1097 16.0965 4.1038 -71.0266 0.0623 88.2187 100.1399 71.3083 -16.1860 -3.6868 20.6630 2.8779 -129.5353 41.9382 157.4174 144.8575 82.1868 -115.9009 -1.1237 -19.7410 -27.6353 -68.3077 19.0039 -153.6180 19.5400 -1.9071 -92.8699 -0.0665 -0.1399 -0.0416 -1.3365 6.2204 27.6463 -144.1763 2.7253 99.2680 6.0100 -2.9643 69.1938 0.5439 -0.2290 0.0361 -45.4416 19.2035 94.4115 -3.6929 41.1293 -12.2423 -7.1332 -12.2035 -1.4916 1.7810 -7.5483 4.5850 -33.0361 -19.1006 81.9368 2.0570 39.2730 10.4442 4.5197 -4.4548 -0.2058 1.0993 -0.8927 -9.7131 
0.0000 93.1000 0.0000 71.0792 15.7950 4.4018 -70.9411 -0.6115 88.2320 98.9193 71.4766 -14.7661 -3.3506 20.1063 3.0251 -128.6147 41.7028 156.1829 147.0157 82.2519 -117.9066 -1.6241 -20.0327 -27.4137 -68.1714 19.5320 -153.4649 20.0990 -1.6593 -93.2634 -0.0638 -0.0157 0.1894 -1.8275 6.0346 27.5696 -145.0193 2.0111 99.2692 6.8590 -3.1305 68.7081 0.2381 -0.4034 -0.3132 -44.4898 19.8850 95.9871 -4.1325 43.0154 -13.5403 -6.4103 -12.1331 -1.3047 3.0088 -9.6850 6.2549 -33.6605 -19.8546 81.3058 3.0995 39.1689 11.9629 4.2657 -4.4083 -0.8581 1.4973 -2.6052 -8.8619 
